# Blender v2.93.0 OBJ File: ''
# www.blender.org
mtllib cliff_tall_corner.mtl
o map.009
v -0.000000 0.750000 0.500000
v 0.750000 0.000000 0.750000
v 0.500000 0.750000 -0.000000
v -0.000000 0.000000 1.000000
v 1.000000 0.000000 0.000000
v 0.000000 5.000000 -0.000002
v -0.000000 4.750000 0.499998
v 0.500000 4.750000 -0.000002
vt -0.000000 0.285714
vt 0.500000 0.000000
vt 1.000000 0.285714
vt 0.000000 0.000000
vt 1.000000 0.000000
vt 0.500000 1.000000
vt -0.000000 0.857143
vt 1.000000 0.857143
vn 0.0355 0.1406 0.9894
vn 0.5611 0.6086 0.5611
vn 0.9832 0.1648 0.0781
vn 0.0198 0.5267 0.8498
vn 0.7882 0.6129 0.0560
vn -0.0314 0.9992 -0.0237
vn 0.7069 0.0245 0.7069
usemtl gake01.009
s 1
f 1/1/1 2/2/2 3/3/3
f 1/1/1 4/4/4 2/2/2
f 3/3/3 2/2/2 5/5/5
usemtl gake1_1.009
f 6/6/6 7/7/7 8/8/7
usemtl yamagake01.005
f 3/3/3 7/7/7 1/1/1
f 3/3/3 8/8/7 7/7/7
