# Blender v2.93.0 OBJ File: ''
# www.blender.org
mtllib cliff_tall.mtl
o map.008
v 0.000000 0.000000 1.000000
v 1.000000 0.750000 0.500001
v 0.000000 0.750000 0.500000
v 1.000000 0.000000 1.000000
v 0.000000 4.750000 0.500002
v 1.000000 5.000000 0.000002
v 0.000000 5.000000 0.000002
v 1.000000 4.750000 0.500003
vt 0.000000 0.000000
vt 1.000000 0.285714
vt 0.000000 0.285714
vt 1.000000 0.000000
vt 0.000000 0.857143
vt 1.000000 1.000000
vt 0.000000 1.000000
vt 1.000000 0.857143
vn -0.0000 0.5547 0.8321
vn -0.0000 0.1047 0.9945
vn -0.0000 0.1168 0.9932
vn 0.0237 0.9992 -0.0314
vn 0.0005 0.1168 0.9932
usemtl gake01.008
s 1
f 1/1/1 2/2/2 3/3/2
f 1/1/1 4/4/1 2/2/2
usemtl gake1_1.008
f 5/5/3 6/6/4 7/7/4
f 5/5/3 8/8/5 6/6/4
usemtl yamagake01.004
f 2/2/2 5/5/3 3/3/2
f 2/2/2 8/8/5 5/5/3
