# Blender v2.93.0 OBJ File: ''
# www.blender.org
mtllib cliff_corner_in.mtl
o map.003
v -0.001953 -0.000000 1.001563
v 0.998047 0.750000 0.501563
v -0.001953 0.750000 0.501563
v 0.998047 -0.000000 1.001563
v 0.498048 0.750000 0.001563
v 0.498047 0.750000 1.001563
v 0.998047 -0.000000 0.001563
v 0.998047 1.000000 0.001563
v -0.001953 1.000000 0.001563
v -0.001953 1.000000 1.001563
vt 0.000000 0.000000
vt 1.000000 0.285714
vt -0.000000 0.285714
vt 0.000000 0.000000
vt 1.000000 0.285714
vt -0.000000 0.285714
vt 1.000000 0.000000
vt 1.000000 0.000000
vt 0.000000 0.857143
vt 1.000000 1.000000
vt 0.000000 1.000000
vt 0.000000 0.857143
vt 1.000000 1.000000
vt 0.000000 1.000000
vt 1.000000 0.857143
vt 1.000000 0.857143
vn -0.0000 0.9998 -0.0188
vn 0.0000 0.7071 0.7071
vn -0.0000 0.9998 -0.0189
vn -0.0000 0.5547 0.8321
vn -0.0188 0.9827 0.1841
vn 0.7071 0.7071 0.0000
vn -0.0187 0.9827 0.1841
usemtl gake1_1.004
s 1
f 1/1/1 2/2/2 3/3/3
f 4/4/4 5/5/5 6/6/2
f 1/1/1 4/7/4 2/2/2
f 4/4/4 7/8/6 5/5/5
f 3/9/3 8/10/7 9/11/7
f 6/12/2 9/13/7 10/14/4
f 3/9/3 2/15/2 8/10/7
f 6/12/2 5/16/5 9/13/7
