# Blender v2.93.0 OBJ File: ''
# www.blender.org
mtllib tall_grass_dark.mtl
o map.008
v 1.000000 0.624999 0.000000
v 0.000000 0.624999 0.000000
v 0.000000 0.624999 1.000000
v 1.000000 0.624999 1.000000
v 1.000000 0.374999 0.000000
v 0.000000 0.374999 0.000000
v 0.000000 0.374999 1.000000
v 1.000000 0.374999 1.000000
v 1.000000 0.124999 0.000000
v 0.000000 0.124999 0.000000
v 0.000000 0.124999 1.000000
v 1.000000 0.124999 1.000000
vt 0.000000 1.000000
vt 0.333300 0.000000
vt 0.333300 1.000000
vt 0.000000 0.000000
vt 0.333333 1.000000
vt 0.666667 0.000000
vt 0.666667 1.000000
vt 0.333333 0.000000
vt 0.666667 1.000000
vt 1.000000 0.000000
vt 1.000000 1.000000
vt 0.666667 0.000000
vn 0.0000 1.0000 0.0000
usemtl kusa_ec1s.001
s 1
f 2/1/1 4/2/1 1/3/1
f 2/1/1 3/4/1 4/2/1
usemtl kusa_ec2s.001
f 6/5/1 8/6/1 5/7/1
f 6/5/1 7/8/1 8/6/1
usemtl kusa_ec3.002
f 10/9/1 12/10/1 9/11/1
f 10/9/1 11/12/1 12/10/1
