mtllib CaveEnter_grass.mtl
o map
v 4.0 0.75 -0.5
v 4.0 0.0 -0.0
v 5.0 0.0 -0.0
v 5.0 0.75 -0.499999
v 0.0 0.75 -0.5
v 0.0 0.0 -0.0
v 1.0 0.0 -0.0
v 1.0 0.75 -0.499999
v 0.0 1.75 -1.5
v 0.0 1.0 -1.0
v 1.0 1.0 -1.0
v 1.0 1.75 -1.499999
v 4.0 1.75 -1.499999
v 4.0 1.0 -1.0
v 5.0 1.0 -1.0
v 5.0 1.75 -1.499999
v 0.0 2.0 -2.0
v 1.0 2.0 -2.0
v 4.0 2.0 -2.0
v 5.0 2.0 -2.0
v 1.0 1.0 -2.0
v 0.0 1.0 -2.0
v 5.0 1.0 -2.0
v 4.0 1.0 -2.0
v 4.195 0.17 -1.01
v 4.195 1.73 -1.97
v 0.835 1.73 -1.97
v 0.835 0.17 -1.01
v 4.435 0.77 -0.53
v 4.435 1.49 -1.25
v 3.475 1.49 -1.129999
v 3.475 0.77 -0.41
v 3.475 0.17 0.07
v 4.435 0.17 -0.049999
v 1.555 1.49 -1.129999
v 0.595 1.49 -1.25
v 0.595 0.77 -0.53
v 1.555 0.77 -0.41
v 1.555 0.17 0.07
v 0.595 0.17 -0.049999
v 3.475 0.17 0.91
v 3.475 0.17 -0.049999
v 2.515 0.17 -0.049999
v 2.515 0.17 0.91
v 1.555 0.17 -0.049999
v 1.555 0.17 0.91
v 4.195 0.17 -0.049999
v 0.835 0.17 -0.049999
vt 0.4375 0.09375
vt 0.4375 0.09375
vt 0.4375 0.09375
vt 0.4375 0.09375
vt 1.0 0.46875
vt 1.0 1.0
vt 0.625 1.0
vt 0.625 0.46875
vt 0.0 0.34375
vt 0.3125 0.34375
vt 0.3125 0.03125
vt 0.0 0.03125
vt 0.90625 -2.5
vt 0.625 -2.125
vt 0.625 -0.375
vt 0.90625 0.0
vt 0.625 1.0
vt 1.0 1.0
vt 1.0 0.46875
vt 0.625 0.46875
vt 0.3125 0.03125
vt 0.3125 0.34375
vt 0.0 0.34375
vt 0.0 0.03125
vt 0.3125 0.53125
vt 0.3125 0.84375
vt 0.0 0.84375
vt 0.0 0.53125
vt 0.3125 0.96875
vt 0.0 0.96875
vt 0.0 0.5625
vt 0.3125 0.5625
vt 0.59375 1.0
vt 0.375 1.0
vt 0.375 0.0
vt 0.59375 0.0
vt 0.53125 0.03125
vt 0.53125 0.03125
vt 0.53125 0.03125
vt 0.53125 0.03125
vt 0.53125 0.03125
vt 0.53125 0.03125
vt 0.90625 0.46875
vt 0.625 0.46875
vt 1.0 0.21875
vt 0.90625 0.46875
vt 1.0 0.59375
vt 0.625 0.46875
vt 5.3E-5 2.2E-5
vt 5.4E-5 -0.999978
vt 1.000053 -0.999978
vt 1.000003 -1.42E-4
vt 5.3E-5 2.2E-5
vt 5.4E-5 -0.999978
vt 1.000053 -0.999978
vt 1.000003 -1.42E-4
vt -0.999947 2.2E-5
vt -0.999946 -0.999978
vt -7.9E-5 -0.999809
vt -9.0E-5 -2.98E-4
vt 2.35E-4 -1.99E-4
vt 2.77E-4 -0.999621
vt 2.999938 -0.999689
vt 2.999938 -5.87E-4
vt 2.999938 2.2E-5
vt 2.999938 -0.999978
vt 4.000053 -0.999978
vt 4.000003 -1.42E-4
vt 0.0 0.0
vt 0.0 -1.0
vt 1.0 -1.0
vt 1.0 0.0
vt 0.0 0.0
vt 0.0 -1.0
vt 1.0 -1.0
vt 1.0 0.0
vt 0.0 0.0
vt 0.0 -1.0
vt 1.0 -1.0
vt 0.999912 -1.08E-4
vt 0.0 0.0
vt 0.0 -1.0
vt 1.0 -1.0
vt 1.0 0.0
vt 0.0 0.0
vt 1.0 0.0
vt 1.0 1.0
vt 0.0 1.0
vt 0.0 0.0
vt 1.0 0.0
vt 1.0 1.0
vt 0.0 1.0
vn -0.0 1.0 -0.0
vn 3.0E-4 1.0 0.0
c 1.0 1.0 1.0
usemtl gake01
s off
f 1/69/2/1 2/70/1/1 3/71/1/1 4/72/1/1
f 5/73/2/1 6/74/1/1 7/75/1/1 8/76/1/1
f 9/77/2/1 10/78/1/1 11/79/1/1 12/80/1/1
f 13/81/1/1 14/82/1/1 15/83/1/1 16/84/1/1
usemtl gake1_0
s off
f 14/49/1/1 1/50/2/1 4/51/1/1 15/52/1/1
f 10/53/1/1 5/54/2/1 8/55/1/1 11/56/1/1
usemtl gake1_1
s off
f 17/57/1/1 9/58/2/1 12/59/1/1 18/60/1/1
f 18/61/1/1 12/62/1/1 13/63/1/1 19/64/1/1
f 19/65/1/1 13/66/1/1 16/67/1/1 20/68/1/1
usemtl gake_futa
s off
f 10/85/1/1 11/86/1/1 21/87/1/1 22/88/1/1
f 14/89/1/1 15/90/1/1 23/91/1/1 24/92/1/1
usemtl doukutu01
s off
f 25/1/1/1 26/2/1/1 27/3/1/1 28/4/1/1
f 29/5/1/1 30/6/1/1 31/7/1/1 32/8/1/1
f 29/9/1/1 32/10/1/1 33/11/1/1 34/12/1/1
f 12/13/1/1 35/14/1/1 31/15/1/1 13/16/1/1
f 35/17/1/1 36/18/1/1 37/19/1/1 38/20/1/1
f 39/21/1/1 38/22/1/1 37/23/1/1 40/24/1/1
f 41/25/1/1 42/26/1/1 43/27/1/1 44/28/1/1
f 44/29/1/1 43/30/1/1 45/31/1/1 46/32/1/1
f 47/33/1/1 25/34/1/1 28/35/1/1 48/36/1/1
f 48/37/1/1 28/38/1/1 27/39/1/1
f 26/40/1/1 25/41/1/1 47/42/1/1
f 13/43/1/1 31/44/1/1 30/45/1/1
f 12/46/1/1 36/47/1/1 35/48/1/1
