mtllib r0_bluffGrassDecal01.mtl
o map
v 2.48 5.05 -0.525
v 2.96 5.05 -1.005
v 1.52 5.05 -0.045000017
v 1.52 5.05 -1.005
v 0.56 5.05 -0.525
v 0.08 5.05 -1.005
v 2.0 1.69 -0.525
v 1.52 1.69 -0.28500003
v 1.04 1.69 -0.525
vt 2.0 0.0
vt 2.0 1.0
vt 0.5 1.0
vt 0.5 0.0
vt 0.5 0.0
vt 0.5 1.0
vt -1.0 1.0
vt -1.0 0.0
vt 1.25 0.0
vt 1.25 1.0
vt 0.5 1.0
vt 0.5 0.0
vt 0.5 0.0
vt 0.5 1.0
vt -0.25 1.0
vt -0.25 0.0
vn 0.397045 0.460191 0.79409
vn 0.0 1.0 0.0
vn 0.0 0.166044 0.986118
vn 0.0 1.0 0.0
vn -0.397045 0.460191 0.79409
vn 0.0 1.0 0.0
vn 0.446304 -0.063758 0.892607
vn 0.0 -0.071247 0.997459
vn -0.446304 -0.063758 0.892607
c 1.0 1.0 1.0
usemtl gake1_1
s off
f 1/1/1/1 2/2/2/1 4/3/4/1 3/4/3/1
f 3/5/3/1 4/6/4/1 6/7/6/1 5/8/5/1
usemtl yamagake01
s off
f 7/9/7/1 1/10/1/1 3/11/3/1 8/12/8/1
f 8/13/8/1 3/14/3/1 5/15/5/1 9/16/9/1
