mtllib r0_stairSkinnyBluff.mtl
o map
v 2.014622 5.0 -5.001563
v 2.014622 1.0 -1.001563
v 2.014622 0.0 -0.001563
v 2.014622 0.0 -5.001563
v 0.982252 5.0 -5.001563
v 0.982252 0.0 -5.001563
v 0.982252 0.0 -1.001563
v 0.982252 0.0 -0.001563
v 1.0 1.0 -5.0
v 0.5 0.75 -5.0
v 0.499218 0.75 -1.000782
v 0.999219 1.0 -1.000782
v 1.996679 1.0 -1.000196
v 2.496679 0.75 -1.000196
v 2.496875 0.75 -5.0
v 1.996874 1.0 -5.0
v 0.998437 0.75 -0.501563
v 1.996484 0.75 -0.500391
v 0.0 0.0 -5.0
v -7.81E-4 0.0 -1.000782
v 2.996679 0.0 -1.000196
v 2.996874 0.0 -5.0
v 0.248437 0.0 -0.251563
v 0.998437 0.0 -0.001563
v 2.746484 0.0 -0.250391
v 1.996484 0.0 -3.91E-4
v 1.873437 0.0 0.498437
v 2.123437 0.0 0.498437
v 2.123437 5.0 -4.501563
v 1.873437 5.0 -4.501563
v 1.873437 5.0 -5.001563
v 1.873437 1.0 -1.001563
v 0.873437 0.0 0.498437
v 1.123437 0.0 0.498437
v 1.123437 5.0 -4.501563
v 0.873437 5.0 -4.501563
v 1.123437 0.0 -0.001563
v 1.123437 5.0 -5.001563
v 0.873437 5.0 -5.001563
v 0.873437 0.0 -0.001563
v 2.123437 0.0 0.498437
v 2.123437 0.0 -0.001563
v 2.123437 5.0 -5.001563
v 2.123437 5.0 -4.501563
v 2.123437 5.0 -5.001563
v 1.873437 0.0 -0.001563
v 2.123437 0.0 -0.001563
v 1.998437 0.146447 0.10199
v 1.998437 4.853553 -4.605117
v 0.998437 0.146447 0.10199
v 0.998437 4.853553 -4.605117
v 1.998437 4.853553 -4.605117
v 0.998437 4.853553 -4.605117
v 0.998437 5.0 -5.001563
v 1.998437 5.0 -5.001563
vt 4.375 1.0
vt 0.375088 0.264853
vt -0.624882 0.054235
vt 4.375 0.0
vt 4.375 1.0
vt 4.375 0.0
vt 0.375071 0.021924
vt -0.624878 0.041336
vt 0.012553 2.2E-5
vt 0.012554 -0.999978
vt 4.011543 -1.001033
vt 4.011534 -0.001586
vt -1.987106 2.65E-4
vt -1.987013 -0.999082
vt 2.012553 -0.999978
vt 2.012453 -1.42E-4
vt 8.45E-4 -6.15E-4
vt 1.35E-4 -0.999386
vt 1.0 -0.999918
vt 8.45E-4 -6.15E-4
vt 0.0 -0.999918
vt 0.999334 -0.999385
vt 0.012447 0.0
vt 0.012447 -1.0
vt 4.011559 -1.000411
vt 4.011539 -6.16E-4
vt -1.987235 -7.0E-6
vt -1.987253 -0.999803
vt 2.012446 -1.0
vt 2.012446 0.0
vt 0.001041 -4.43E-4
vt 0.5 -1.0
vt 1.0 0.0
vt 7.0E-5 -0.999898
vt 1.0 -1.0
vt 0.0 0.0
vt 0.5 -1.0
vt 0.998961 -4.43E-4
vt 0.0 -1.0
vt 0.99993 -0.999898
vt 0.003294 0.647039
vt 0.121321 0.647039
vt 0.121457 0.794965
vt 0.003115 0.794965
vt 0.12159 -0.056339
vt 0.12163 0.179052
vt 0.027474 0.179052
vt 0.027436 0.179033
vt 0.747391 -14.128536
vt 0.438435 -14.128529
vt 0.438428 2.5
vt 0.747373 2.5
vt 0.003294 0.647039
vt 0.121321 0.647039
vt 0.121457 0.794965
vt 0.003115 0.794965
vt 0.027534 0.067507
vt 0.121547 0.067516
vt 0.12163 0.185204
vt 0.027474 0.185204
vt 0.103938 0.020294
vt 0.103975 0.167416
vt 0.045128 0.167416
vt 0.04514 0.096062
vt 0.103938 0.020294
vt 0.04514 0.096062
vt 0.045128 0.167416
vt 0.103975 0.167416
vt 0.0 0.25
vt 0.125 0.25
vt 0.125 0.5
vt 0.0 0.5
vt 0.0 0.25
vt 0.125 0.25
vt 0.125 0.5
vt 0.0 0.5
vt 0.738905 0.528649
vt 0.387342 0.528649
vt 0.387342 0.988339
vt 0.738905 0.988339
vt 0.033422 0.071883
vt 0.095558 0.071835
vt 0.095512 0.196302
vt 0.03337 0.196319
vn 1.0 0.0 -0.0
vn -1.0 0.0 -0.0
vn -0.4472 0.8944 -1.0E-4
vn -0.6618 0.7497 -1.0E-4
vn -0.6343 0.7437 0.2108
vn -0.4387 0.8774 0.1942
vn 0.4386 0.8773 0.1946
vn 0.6343 0.7437 0.211
vn 0.6618 0.7497 0.0
vn 0.4472 0.8944 -0.0
vn -0.4247 0.7005 0.5736
vn 0.4246 0.7003 0.5738
vn -0.832 0.5547 -2.0E-4
vn -0.8253 0.5502 0.1265
vn 0.8253 0.5502 0.127
vn 0.832 0.5547 0.0
vn -0.5614 0.6082 0.5611
vn -0.2673 0.5345 0.8018
vn 0.5612 0.6081 0.5614
vn 0.2673 0.5345 0.8018
vn 0.0 0.7071 0.7071
vn 0.0 1.0 -0.0
vn 0.0 0.938 0.3465
vn 0.0 -1.0 -0.0
vn 0.0 -0.3827 0.9239
vn -0.162 -0.3776 0.9116
c 1.0 1.0 1.0
usemtl gake01
s off
f 10/23/4/1 19/24/13/1 20/25/14/1 11/26/5/1
f 14/27/8/1 21/28/15/1 22/29/16/1 15/30/9/1
f 11/31/5/1 23/32/17/1 17/33/11/1
f 11/31/5/1 20/34/14/1 23/32/17/1
f 17/33/11/1 23/32/17/1 24/35/18/1
f 18/36/12/1 25/37/19/1 14/38/8/1
f 18/36/12/1 26/39/20/1 25/37/19/1
f 14/38/8/1 25/37/19/1 21/40/15/1
usemtl gake1_0
s off
f 9/9/3/1 10/10/4/1 11/11/5/1 12/12/6/1
f 13/13/7/1 14/14/8/1 15/15/9/1 16/16/10/1
f 12/17/6/1 11/18/5/1 17/19/11/1
f 13/20/7/1 18/21/12/1 14/22/8/1
usemtl yamagake01
s off
f 1/1/1/1 2/2/1/1 3/3/1/1 4/4/1/1
f 5/5/2/1 6/6/2/1 7/7/2/1 8/8/2/1
usemtl kaidan01a
s off
f 27/41/21/1 28/42/21/1 29/43/21/1 30/44/21/1
f 27/45/2/1 30/46/2/1 31/47/2/1 32/48/2/1
f 50/49/21/1 48/50/21/1 49/51/21/1 51/52/21/1
f 33/53/21/1 34/54/21/1 35/55/21/1 36/56/21/1
f 34/57/1/1 37/58/1/1 38/59/1/1 35/60/1/1
f 33/61/2/1 36/62/2/1 39/63/2/1 40/64/2/1
f 41/65/1/1 42/66/1/1 43/67/1/1 44/68/1/1
f 30/69/22/1 29/70/22/1 45/71/22/1 31/72/22/1
f 36/73/22/1 35/74/22/1 38/75/22/1 39/76/22/1
f 53/77/23/1 52/78/23/1 55/79/23/1 54/80/23/1
f 46/81/24/1 47/82/24/1 28/83/25/1 27/84/26/1
