mtllib r0_treeBigPine.mtl
o map
v 1.5 0.095762 -0.0
v 1.5 0.095762 -3.0
v 1.5 5.026426 -0.0
v 1.5 5.026426 -3.0
v 0.0 0.123594 -0.0
v 3.0 0.123594 -0.0
v 0.0 0.123594 -3.0
v 3.0 0.123594 -3.0
v 0.0 0.095762 -1.5
v 3.0 0.095762 -1.5
v 0.0 5.026426 -1.5
v 3.0 5.026426 -1.5
v 0.0 4.159656 -0.0
v 3.0 4.159656 -0.0
v 0.0 4.159656 -3.0
v 3.0 4.159656 -3.0
v 0.0 1.88557 -0.0
v 3.0 1.88557 -0.0
v 0.0 1.88557 -3.0
v 3.0 1.88557 -3.0
vt 0.0 0.0
vt 1.0 0.0
vt 1.0 1.0
vt 0.0 1.0
vt 0.0 0.0
vt 1.0 0.0
vt 1.0 1.0
vt 0.0 1.0
vt 0.0 0.0
vt 1.0 0.0
vt 1.0 1.0
vt 0.0 1.0
vt 0.0 0.0
vt 1.0 0.0
vt 1.0 1.0
vt 0.0 1.0
vt 0.0 0.0
vt 1.0 0.0
vt 1.0 1.0
vt 0.0 1.0
vn 1.0 0.0 0.0
vn 1.0 0.0 0.0
vn 1.0 0.0 0.0
vn 1.0 0.0 0.0
vn 0.0 1.0 0.0
vn 0.0 1.0 0.0
vn 0.0 1.0 0.0
vn 0.0 1.0 0.0
vn 0.0 0.999632 -0.027122
vn 0.0 0.999632 -0.027122
vn 0.0 0.999962 0.008758
vn 0.0 0.999962 0.008758
vn 0.0 1.0 0.0
vn 0.0 1.0 0.0
vn 0.0 1.0 0.0
vn 0.0 1.0 0.0
vn 0.0 1.0 0.0
vn 0.0 1.0 0.0
vn 0.0 1.0 0.0
vn 0.0 1.0 0.0
c 1.0 1.0 1.0
usemtl ki02ax
s off
f 1/1/1/1 2/2/2/1 4/3/4/1 3/4/3/1
f 9/9/9/1 10/10/10/1 12/11/12/1 11/12/11/1
usemtl ki02c
s off
f 5/5/5/1 6/6/6/1 8/7/8/1 7/8/7/1
usemtl ki02dx
s off
f 13/13/13/1 14/14/14/1 16/15/16/1 15/16/15/1
usemtl ki02bx
s off
f 17/17/17/1 18/18/18/1 20/19/20/1 19/20/19/1
