mtllib River_light.mtl
o map
v -0.009766 -0.625002 -0.0
v 1.75 -0.625002 -0.0
v 1.75 -0.625001 -1.0
v -0.009766 -0.625001 -1.0
v 1.75 -0.625002 -0.0
v 3.509766 -0.625002 -0.0
v 3.509766 -0.625001 -1.0
v 1.75 -0.625001 -1.0
vt 0.015625 0.020508
vt 0.945312 0.020508
vt 0.945312 0.34375
vt 0.015625 0.34375
vt 0.945312 0.479492
vt 0.015625 0.479492
vt 0.015625 0.15625
vt 0.945312 0.15625
vn 0.0 1.0 0.0
c 1.0 1.0 1.0
usemtl kawa_kage
s off
f 3/1/1/1 4/2/1/1 1/3/1/1 2/4/1/1
f 7/5/1/1 8/6/1/1 5/7/1/1 6/8/1/1
