mtllib River_border_bl.mtl
o map
v 0.375 -0.5 -0.0
v 1.0 -0.500001 -0.625
v 1.0 -1.000001 -1.0
v 0.0 -1.0 -0.0
v 1.0 0.0 -0.0
v 1.0 -0.250001 -0.5
v 0.5 -0.250001 -0.0
v 1.0 -0.500001 -0.625
v 1.0 -0.500001 -1.0
v 0.0 -0.5 -0.0
v 0.375 -0.5 -0.0
v 0.5 -0.250001 -0.0
v 1.0 -0.250001 -0.5
v 1.0 -0.500001 -0.625
v 0.375 -0.5 -0.0
vt 3.0 -3.0
vt 3.5 -2.5
vt 3.3125 -2.5
vt 3.0 -2.8125
vt -0.5 0.0
vt -1.0 -1.0
vt 0.0 -1.0
vt 0.0 -1.0
vt 0.0 0.0
vt -1.0 0.0
vt -1.0 -1.0
vt -1.0 -0.5
vt 0.0 -0.5
vt 0.0 0.0
vt -1.0 0.0
vn -1.0E-4 1.0 0.0
vn 0.0 1.0 -1.0E-4
vn 0.0 0.5251 -0.851
vn -0.0 1.0 0.0
vn -0.0 0.7071 -0.7071
vn 0.0 0.525 -0.8511
c 1.0 1.0 1.0
usemtl gake01a2
s off
f 14/12/6/1 15/13/3/1 12/14/5/1 13/15/5/1
usemtl gake1_1
s off
f 5/5/4/1 6/6/5/1 7/7/5/1
usemtl kawa_soko
s off
f 3/1/1/1 4/2/2/1 1/3/3/1 2/4/3/1
usemtl kawa_fuchi_1
s off
f 10/8/4/1 11/9/4/1 8/10/4/1 9/11/4/1
