mtllib tall_grass.mtl
o map
v 1.0 0.124999 -1.0
v 0.0 0.124999 -1.0
v 0.0 0.124999 -0.0
v 1.0 0.124999 -0.0
v 1.0 0.624999 -1.0
v 0.0 0.624999 -1.0
v 0.0 0.624999 -0.0
v 1.0 0.624999 -0.0
v 1.0 0.374999 -1.0
v 0.0 0.374999 -1.0
v 0.0 0.374999 -0.0
v 1.0 0.374999 -0.0
v 1.0 0.624999 -0.0
v 0.0 0.624999 -0.0
v 1.0 0.124999 -0.0
v 0.0 0.124999 -0.0
v 1.0 0.374999 -0.0
v 0.0 0.374999 -0.0
vt 1.0 1.0
vt 0.0 1.0
vt 0.0 0.0
vt 1.0 0.0
vt 1.0 1.0
vt 0.0 1.0
vt 0.0 0.0
vt 1.0 0.0
vt 1.0 1.0
vt 0.0 1.0
vt 0.0 0.0
vt 1.0 0.0
vn 0.0 1.0 -0.0
c 1.0 1.0 1.0
usemtl kusa_ec1s
s off
f 5/5/1/1 6/6/1/1 7/7/1/1 8/8/1/1
usemtl kusa_ec2s
s off
f 9/1/1/1 10/2/1/1 11/3/1/1 12/4/1/1
usemtl kusa_ec3
s off
f 1/9/1/1 2/10/1/1 3/11/1/1 4/12/1/1
