mtllib WaterSand_bl.mtl
o map
v 3.0 -0.437501 -1.75
v 1.75 -0.437501 -1.25
v 3.0 -0.187501 -0.875
v 2.125 -0.187501 -0.0
v 2.875 0.062499 -0.0
v 3.0 0.062499 -0.125
v 3.0 -0.187501 -0.875
v 2.125 -0.187501 -0.0
v 2.125 -0.187501 -0.0
v 1.75 -0.437501 -1.25
v 1.25 -0.437501 -0.0
v 3.0 -0.500001 -1.0
v 3.0 -0.562501 -1.75
v 1.25 -0.562501 -0.0
v 2.0 -0.500001 -0.0
v 3.0 -1.0E-6 -0.0
v 3.0 -0.500001 -1.0
v 2.0 -0.500001 -0.0
v 1.25 -0.562501 -0.0
v 3.0 -0.562501 -1.75
v 1.75 -0.562501 -1.25
v 0.0 -0.437501 -0.0
v 1.25 -0.437501 -0.0
v 0.5 -0.437501 -2.5
v 1.75 -0.437501 -1.25
v 3.0 -0.437501 -3.0
v 3.0 -0.437501 -1.75
vt 0.0 -0.34375
vt 1.0 -0.375
vt 0.0 -0.125
vt 2.0 -0.125
vt 2.0 0.0
vt 0.0 0.0
vt 0.0 -0.125
vt 2.0 -0.125
vt 2.0 -0.125
vt 1.0 -0.375
vt 2.0 -0.34375
vt -1.5 -1.0
vt -1.5 -1.0
vt 0.5 -1.0
vt 0.5 -1.0
vt -0.5 0.0
vt -1.5 -1.0
vt 0.5 -1.0
vt 0.5 -1.0
vt -1.5 -1.0
vt -1.5 -1.0
vt 1.0 0.0
vt 2.5 0.0
vt 2.5 -1.0
vt 0.0 -1.0
vt 4.0 0.0
vt 5.0 -1.0
vn 0.0 1.0 -0.0
c 1.0 1.0 1.0
usemtl sea_zanami2
s off
f 23/22/1/1 25/23/1/1 24/24/1/1 22/25/1/1
f 25/23/1/1 27/26/1/1 26/27/1/1 24/24/1/1
usemtl sea_zanami
s off
f 1/1/1/1 2/2/1/1 3/3/1/1
f 2/2/1/1 4/4/1/1 3/3/1/1
f 5/5/1/1 6/6/1/1 7/7/1/1
f 7/7/1/1 8/8/1/1 5/5/1/1
f 9/9/1/1 10/10/1/1 11/11/1/1
usemtl sea_simi_1
s off
f 12/12/1/1 13/13/1/1 14/14/1/1
f 14/14/1/1 15/15/1/1 12/12/1/1
f 16/16/1/1 17/17/1/1 18/18/1/1
f 19/19/1/1 20/20/1/1 21/21/1/1
